<svg width="24" height="24" viewBox="0 0 24 24" fill="none" xmlns="http://www.w3.org/2000/svg">
<path d="M12.8002 6.00312C12.8002 5.5613 12.442 5.20312 12.0002 5.20312C11.5584 5.20312 11.2002 5.5613 11.2002 6.00312V11.2031H6.0002C5.55837 11.2031 5.2002 11.5613 5.2002 12.0031C5.2002 12.445 5.55837 12.8031 6.0002 12.8031H11.2002V18.0031C11.2002 18.445 11.5584 18.8031 12.0002 18.8031C12.442 18.8031 12.8002 18.445 12.8002 18.0031V12.8031H18.0002C18.442 12.8031 18.8002 12.445 18.8002 12.0031C18.8002 11.5613 18.442 11.2031 18.0002 11.2031H12.8002V6.00312Z" fill="#130817" fill-opacity="0.9"/>
</svg>
