<svg width="16" height="17" viewBox="0 0 16 17" fill="none" xmlns="http://www.w3.org/2000/svg">
<path opacity="0.5" fill-rule="evenodd" clip-rule="evenodd" d="M6.28033 5.48529C5.98744 5.1924 5.51256 5.1924 5.21967 5.48529C4.92678 5.77819 4.92678 6.25306 5.21967 6.54595L7.18934 8.51562L5.21967 10.4853C4.92678 10.7782 4.92678 11.2531 5.21967 11.546C5.51256 11.8388 5.98744 11.8388 6.28033 11.546L8.25 9.57629L10.2197 11.546C10.5126 11.8388 10.9874 11.8388 11.2803 11.546C11.5732 11.2531 11.5732 10.7782 11.2803 10.4853L9.31066 8.51562L11.2803 6.54595C11.5732 6.25306 11.5732 5.77819 11.2803 5.48529C10.9874 5.1924 10.5126 5.1924 10.2197 5.48529L8.25 7.45496L6.28033 5.48529Z" fill="#6E328C"/>
</svg>
