<svg width="34" height="34" viewBox="0 0 34 34" fill="none" xmlns="http://www.w3.org/2000/svg">
<path d="M5 0.5C2.51472 0.5 0.5 2.51472 0.5 5V29C0.5 31.4853 2.51472 33.5 5 33.5H29C31.4853 33.5 33.5 31.4853 33.5 29V5C33.5 2.51472 31.4853 0.5 29 0.5H5Z" stroke="#130817" stroke-opacity="0.1"/>
<path d="M9.03614 22.9827C8.42275 22.9827 8 22.5942 8 22.0072C8 21.7741 8.05802 21.5065 8.19894 21.0662L11.0504 12.554C11.4068 11.4576 11.9125 11 12.8574 11C13.7941 11 14.2914 11.4489 14.6479 12.554L17.4993 21.0662C17.6154 21.4374 17.6734 21.7223 17.6734 21.964C17.6734 22.5856 17.2507 22.9827 16.6124 22.9827C16.0073 22.9827 15.6592 22.6547 15.4353 21.8518L14.7971 19.8489H10.8266L10.1966 21.8518C9.96452 22.6633 9.63296 22.9827 9.03614 22.9827ZM11.3239 18.1137H14.308L12.874 13.3482H12.7662L11.3239 18.1137Z" fill="#130817" fill-opacity="0.7"/>
<path d="M23.8034 21.7137C23.3558 22.5338 22.4854 23 21.4078 23C19.692 23 18.5315 21.8777 18.5315 20.2115C18.5315 18.5194 19.7334 17.4748 21.7311 17.4748H23.82V16.7237C23.82 15.8 23.2646 15.3165 22.2616 15.3165C21.5985 15.3165 21.126 15.5755 20.6369 16.0331C20.3883 16.2403 20.1562 16.3353 19.7997 16.3353C19.319 16.3353 19.0206 15.9986 19.0206 15.5324C19.0206 14.9971 19.377 14.4532 20.1479 14.0475C20.7032 13.7453 21.441 13.5727 22.4025 13.5727C24.7069 13.5727 26 14.7122 26 16.741V21.7482C26 22.5252 25.6187 22.9655 24.939 22.9655C24.3588 22.9655 23.9775 22.6288 23.9111 22.0331V21.7137H23.8034ZM20.7032 20.0734C20.7032 20.8331 21.2835 21.3597 22.1373 21.3597C23.0822 21.3597 23.82 20.6863 23.82 19.823V18.8734H22.129C21.2338 18.8734 20.7032 19.3223 20.7032 20.0734Z" fill="#130817" fill-opacity="0.7"/>
</svg>
