<svg width="20" height="21" viewBox="0 0 20 21" fill="none" xmlns="http://www.w3.org/2000/svg">
<path fill-rule="evenodd" clip-rule="evenodd" d="M8.5002 2.46875C5.0208 2.46875 2.2002 5.28936 2.2002 8.76875C2.2002 12.2481 5.0208 15.0688 8.5002 15.0688C9.95443 15.0688 11.2936 14.576 12.3598 13.7484C12.3823 13.7784 12.4072 13.8072 12.4345 13.8344L15.4345 16.8344C15.7469 17.1469 16.2535 17.1469 16.5659 16.8344C16.8783 16.522 16.8783 16.0155 16.5659 15.7031L13.5659 12.7031C13.5386 12.6758 13.5098 12.6509 13.4799 12.6284C14.3075 11.5621 14.8002 10.223 14.8002 8.76875C14.8002 5.28936 11.9796 2.46875 8.5002 2.46875ZM3.8002 8.76875C3.8002 6.17301 5.90446 4.06875 8.5002 4.06875C11.0959 4.06875 13.2002 6.17301 13.2002 8.76875C13.2002 11.3645 11.0959 13.4688 8.5002 13.4688C5.90446 13.4688 3.8002 11.3645 3.8002 8.76875Z" fill="#130817" fill-opacity="0.3"/>
</svg>
